<svg width="512" height="512" viewBox="0 0 512 512" fill="none" xmlns="http://www.w3.org/2000/svg">
<path d="M255.968 5C114.624 5 0 120.072 0 262.024C0 375.56 73.344 471.88 175.104 505.896C187.904 508.264 192.576 500.328 192.576 493.512C192.576 487.4 192.352 471.24 192.224 449.8C121.024 465.32 105.984 415.336 105.984 415.336C94.368 385.64 77.568 377.736 77.568 377.736C54.304 361.8 79.296 362.12 79.296 362.12C104.992 363.944 118.496 388.616 118.496 388.616C141.344 427.88 178.432 416.552 193.024 409.96C195.328 393.352 201.952 382.024 209.28 375.592C152.448 369.096 92.672 347.048 92.672 248.584C92.672 220.52 102.656 197.576 119.04 179.592C116.384 173.096 107.616 146.952 121.536 111.592C121.536 111.592 143.04 104.68 191.936 137.928C212.352 132.232 234.24 129.384 256.032 129.288C277.76 129.416 299.68 132.232 320.128 137.96C368.992 104.712 390.464 111.624 390.464 111.624C404.416 147.016 395.648 173.128 393.024 179.624C409.44 197.608 419.328 220.552 419.328 248.616C419.328 347.336 359.488 369.064 302.464 375.432C311.648 383.368 319.84 399.048 319.84 423.016C319.84 457.384 319.52 485.096 319.52 493.512C319.52 500.392 324.128 508.392 337.12 505.864C438.72 471.816 512 375.528 512 262.024C512 120.072 397.376 5 255.968 5Z" fill="#101821"/>
</svg>
